# xmcd
#
# Track frame offsets: 
#        150
#        12607
#        23933
#        42270
#        64617
#        83432
#        96472
#        114197
#        136570
#        149171
#
# Disc length: 2335 seconds
#
# Revision: 0
# Processed by: cddbd v1.5.2PL0 Copyright (c) Steve Scherf et al.
# Submitted via: ExactAudioCopy v0.99pb5
#
DISCID=80091d0a
DTITLE=Howlin' Lord - Cold Fury
DYEAR=2011
DGENRE=Folk/Rock
TTITLE0=Once Proud Town
TTITLE1=You Again
TTITLE2=Wade Right In
TTITLE3=Bright Lights
TTITLE4=From my Seat at the Bar
TTITLE5=Egyptian Cotton
TTITLE6=Glass Eyes
TTITLE7=Ten Paces
TTITLE8=Funny Way of Winning
TTITLE9=Leaves
EXTD=
EXTT0=
EXTT1=
EXTT2=
EXTT3=
EXTT4=
EXTT5=
EXTT6=
EXTT7=
EXTT8=
EXTT9=
PLAYORDER=
